<svg xmlns="http://www.w3.org/2000/svg" xmlns:xlink="http://www.w3.org/1999/xlink" version="1.1" x="0px" y="0px" viewBox="0 0 100 125" enable-background="new 0 0 100 100" xml:space="preserve"><g><path fill="#000000" d="M93.477,45.353c-1.397-0.1-2.794,1.098-3.193,2.595l-2.595,7.484c-0.698,1.297-1.696,0.199-1.597-0.399   c0.1-0.599,2.096-14.869,2.096-14.869c0.299-1.497,0.1-2.994-1.397-3.293c-1.497-0.299-2.594,0.798-2.894,2.295   c0,0-2.096,13.372-2.694,14.669c-0.599,1.297-1.197,0.898-1.197-0.1c0-0.599,0.998-16.665,0.998-16.665   c0.1-1.497-0.499-2.894-1.996-2.994c-1.497-0.1-2.196,1.098-2.295,2.595c0,0-1.497,15.667-1.597,16.765   c-0.1,1.098-1.098,1.197-1.297,0c-0.199-1.197-0.798-13.97-0.798-13.97c0-1.497-0.698-2.794-2.196-2.794   c-1.497,0-2.196,1.297-2.196,2.794c0,0-0.1,13.072,0,15.468c0.1,2.594,0.199,9.081-1.497,9.28   c-1.597,0.199-4.091-1.696-5.488-3.792c-1.197-1.696-3.293-2.794-5.488-2.495c-3.193,0.399-1.297,2.894,0.898,5.289   c4.69,5.089,5.887,7.784,8.183,11.176c1.497,2.295,4.99,5.987,11.376,5.887c8.582-0.1,13.372-3.493,14.47-18.261   c0.199-3.293,2.694-13.671,3.093-14.869C94.375,46.95,94.276,45.353,93.477,45.353z"/><path fill="#000000" d="M5.573,47.15c0.399,1.197,2.894,11.576,3.093,14.869c1.098,14.769,5.888,18.162,14.47,18.261   c6.386,0.1,9.879-3.592,11.376-5.887c2.296-3.393,3.493-6.087,8.183-11.176c2.196-2.395,4.092-4.89,0.898-5.289   c-2.196-0.299-4.291,0.798-5.488,2.495c-1.397,2.096-3.892,3.991-5.488,3.792c-1.696-0.199-1.597-6.686-1.497-9.28   c0.1-2.395,0-15.468,0-15.468c0-1.497-0.698-2.794-2.196-2.794c-1.497,0-2.196,1.297-2.196,2.794c0,0-0.599,12.773-0.798,13.97   c-0.199,1.197-1.197,1.098-1.297,0c-0.1-1.098-1.597-16.765-1.597-16.765c-0.099-1.497-0.798-2.694-2.295-2.595   s-2.096,1.497-1.996,2.994c0,0,0.998,16.066,0.998,16.665c0,0.998-0.598,1.397-1.197,0.1c-0.599-1.297-2.694-14.669-2.694-14.669   c-0.299-1.497-1.397-2.594-2.894-2.295c-1.497,0.299-1.697,1.796-1.397,3.293c0,0,1.996,14.27,2.096,14.869   c0.099,0.598-0.898,1.696-1.597,0.399l-2.595-7.484c-0.399-1.497-1.796-2.694-3.193-2.595C5.473,45.353,5.374,46.95,5.573,47.15z"/><g><g><rect x="48.287" y="17.751" fill="#000000" width="3.208" height="17.108"/></g><g><rect x="40.824" y="19.186" transform="matrix(0.9397 -0.342 0.342 0.9397 -6.9288 16.1831)" fill="#000000" width="3.208" height="17.108"/></g><g><rect x="34.246" y="22.934" transform="matrix(0.766 -0.6428 0.6428 0.766 -11.8527 30.4125)" fill="#000000" width="3.208" height="17.108"/></g><g><rect x="55.345" y="29.689" transform="matrix(0.6428 -0.766 0.766 0.6428 -1.1472 60.1251)" fill="#000000" width="17.108" height="3.208"/></g><g><rect x="48.816" y="25.985" transform="matrix(0.342 -0.9397 0.9397 0.342 11.8244 72.0639)" fill="#000000" width="17.108" height="3.208"/></g></g></g><text x="0" y="115" fill="#000000" font-size="5px" font-weight="bold" font-family="'Helvetica Neue', Helvetica, Arial-Unicode, Arial, Sans-serif">Created by sasha willins</text><text x="0" y="120" fill="#000000" font-size="5px" font-weight="bold" font-family="'Helvetica Neue', Helvetica, Arial-Unicode, Arial, Sans-serif">from the Noun Project</text></svg>