<svg xmlns="http://www.w3.org/2000/svg" viewBox="0 0 313 920" x="0px" y="0px"><defs><style>.cls-1{fill:none;}</style></defs><title>Fichier 60Sign-language</title><g data-name="Calque 2"><g data-name="Calque 1"><path class="cls-1" d="M238.03906,346.18164l-.18652-.082C213.80371,335,182.30762,335,157,335c-20.09473,0-26.8291,6.52441-26.99707,8.91016.38769,2.18457,5.39648,11.06152,19.68164,20.11132a5.02551,5.02551,0,0,1,1.168.72754c2.32031,1.42188,4.87207,2.8418,7.67383,4.23828a4.95614,4.95614,0,0,1,1.60742.78418q3.22411,1.54248,6.87305,3.02442c.13671.04785.27246.10254.40625.16406a149.2763,149.2763,0,0,0,16.00293,5.334,47.65092,47.65092,0,0,0,16.78515.76464,4.98973,4.98973,0,0,1,3.02051-.50586,49.27194,49.27194,0,0,0,15.63379-6.127A4.99959,4.99959,0,0,1,224,381a60.51561,60.51561,0,0,1-12.8457,5.82715c9.40527,12.36523,25.501,31.79394,29.0166,34.08789a5.00008,5.00008,0,0,1-4.23438,9.05762c-6.15527-2.74317-28.26953-31.15332-35.51562-40.85157a57.87419,57.87419,0,0,1-19.30957-1.0957c-.07422-.0166-.14746-.03516-.21973-.05469q-7.01075-1.91748-13.06543-4.14648c-5.999,13.88086-14.65722,46.60742-14.78027,50.874a5.00014,5.00014,0,1,1-9.9961-.28906c.17286-5.959,8.99708-38.94434,15.53321-54.333l-.08692-.03906c-16.79394,21.499-51.11035,87.75879-53.63769,98.14551a5.00026,5.00026,0,0,1-9.7168-2.36524c2.82129-11.59277,35.85254-75.78515,54.25684-100.33691-.627-.34961-1.23926-.69922-1.84278-1.05176C131.13184,384.72363,92.26953,420.5957,88,427a4.99989,4.99989,0,1,1-8.32031-5.54688c4.627-6.94042,39.55957-39.49023,58.834-52.99121C124.98242,358.33008,120,348.28613,120,344c0-7.05664,7.793-19,37-19,26.28613,0,59.001,0,85,12a98.50431,98.50431,0,0,1,24.22949,15.02734c-.32422-3.4082-.65625-6.97656-.99609-10.62988-1.80664-19.40918-3.85352-41.40918-6.07227-53.6084-3.8291-21.06152-38.43066-161.956-50.67285-199.70312C197.6875,54.78613,190.96289,52,185,52c-4.89746,0-7.5459.11133-9.54883,2.50684-3.14941,3.7666-4.76855,12.70214-4.81543,26.56054,4.15137,32.957,9.31446,81.72266,12.91992,116.88282,2.32227,22.64257,4.1211,40.83789,4.98633,49.66894.62012,6.332,1.11426,11.44531,1.44922,14.97656.168,1.77344.2959,3.14942.37988,4.082l.09668,1.09473a5.01029,5.01029,0,1,1-9.917,1.43457c-2.14258-14.99512-12.59766-83.01269-21.82324-143.02246-7.499-48.78613-13.99316-91.0293-14.60156-95.55859C139.95312,10.001,135.59473,10,124,10c-9.62305,0-16,17.07812-16,24,0,11.10449,0,40.60156,1.96875,65.20312,1.14648,14.334,6.6377,75.79,11.0498,125.1709,1.52442,17.06934,2.90333,32.49707,3.89454,43.65918.49609,5.584.8955,10.09961,1.168,13.22071.13672,1.5664.24122,2.7832.31055,3.60839q.03516.42627.043.81739c.00879.06054.01563.11426.02246.16308l-.02051.002c.01953,4.4707-2.68652,5.4707-4.37988,5.6582a5.04155,5.04155,0,0,1-5.51367-4.3457c-.3125-2.35547-3.41406-22.13282-7.34082-47.17188-9.74024-62.10156-24.46-155.95019-25.17285-165.21777C83.33594,65.749,79.47266,55,65,55c-7.57422,0-17,0-17,34,0,6.56445,1.251,23.45605,3.71875,50.20508.085.69824.14941,1.40625.19531,2.10547,3.14063,33.85254,6.13574,76.88086,8.09571,107.02441,1.27832,19.66016,2.17578,34.76563,2.59765,42.01953.30664,5.28223.542,9.51758.69531,12.43262.07813,1.47168.13379,2.61035.169,3.38184.22559,5.0791-2.668,6.16113-4.41211,6.35351A5.03906,5.03906,0,0,1,53.54,308.13477c-.09766-.76661-.71484-4.72852-1.56934-10.21094C47.03125,266.22656,32,169.76855,32,144c0-.36328-.00977-.71973-.02734-1.06543l-.14063-1.53125c-.97461-7.08887-5.89844-7.85742-7.97656-7.85742C16.96973,133.5459,10,140.22852,10,153V553c0,15.65918,11.82422,34.96094,22.25586,51.99121C42.85059,622.28711,52,637.22363,52,651v75H218V652c0-13.78418,8.834-27.2334,21.06055-45.84863,7.45215-11.34668,15.89941-24.208,24.08593-39.79981C289.59082,515.98047,303,477.50684,303,452,303,419.69727,282.8457,365.51074,238.03906,346.18164Z"/><path d="M277.3418,362.74219c-.67676-6.42676-1.39453-14.13672-2.15137-22.27051C273.36523,320.8584,271.2959,298.62793,268.999,286,265.14453,264.79785,230.32031,122.98633,218,85c-10.29688-31.748-18.93262-43-33-43-12.32812,0-22.69141,2.54492-24.18164,31.9375-3.79688-24.75488-6.54883-42.79-6.7959-44.75586-.01562-.12207-.03516-.24316-.05957-.36328C148.96973,4.00488,141.041,0,124,0c-7.75586,0-14.84277,4.92285-19.95508,13.86133C99.86914,21.16211,98,29.23633,98,34c0,11.21387,0,41.001,2,66,.46,5.749,1.61426,19.02344,3.11523,36.04688C98.19434,104.09668,94.335,78.36133,94,74.001,92.60449,55.8418,81.76367,45,65,45c-19.17773,0-27,12.748-27,44,0,6.97266,1.23242,23.71875,3.76855,51.19629.00391.0498.00977.09863.01563.14844q.09961.81445.1543,1.66894.0044.07472.01172.14942c1.09472,11.791,2.18457,24.87109,3.23339,38.3623C43.2666,164.56445,42,151.27832,42,144c0-.582-.0166-1.15039-.04688-1.70117-.00292-.06055-.00781-.12012-.01269-.18067l-.16113-1.73925c-.00586-.06446-.0127-.12989-.02149-.19434C40.666,131.90234,34.707,123.5459,23.85547,123.5459,12.001,123.5459,0,133.66309,0,153V553c0,18.47754,12.60645,39.05762,23.72949,57.21582C33.5332,626.2207,42,640.043,42,651v80a4.99962,4.99962,0,0,0,5,5H223a4.99962,4.99962,0,0,0,5-5V652c0-10.79395,8.14551-23.19434,19.418-40.3584C254.99707,600.10254,263.58691,587.02441,272,571c27.20605-51.82031,41-91.85742,41-119C313,426.92383,301.71484,389.65137,277.3418,362.74219ZM263.14648,566.35156c-8.18652,15.5918-16.63378,28.45313-24.08593,39.79981C226.834,624.7666,218,638.21582,218,652v74H52V651c0-13.77637-9.14941-28.71289-19.74414-46.00879C21.82422,587.96094,10,568.65918,10,553V153c0-12.77148,6.96973-19.4541,13.85547-19.4541,2.07812,0,7.002.76855,7.97656,7.85742l.14063,1.53125c.01757.3457.02734.70215.02734,1.06543,0,25.76855,15.03125,122.22656,19.9707,153.92383.8545,5.48242,1.47168,9.44433,1.56934,10.21094a5.03906,5.03906,0,0,0,5.51953,4.38769c1.74414-.19238,4.6377-1.27441,4.41211-6.35351-.03516-.77149-.09082-1.91016-.169-3.38184-.15332-2.915-.38867-7.15039-.69531-12.43262-.42187-7.2539-1.31933-22.35937-2.59765-42.01953-1.96-30.14355-4.95508-73.17187-8.09571-107.02441-.0459-.69922-.11035-1.40723-.19531-2.10547C49.251,112.45605,48,95.56445,48,89c0-34,9.42578-34,17-34,14.47266,0,18.33594,10.749,19.0293,19.76758.71289,9.26758,15.43261,103.11621,25.17285,165.21777,3.92676,25.03906,7.02832,44.81641,7.34082,47.17188a5.04155,5.04155,0,0,0,5.51367,4.3457c1.69336-.1875,4.39941-1.1875,4.37988-5.6582l.02051-.002c-.00683-.04882-.01367-.10254-.02246-.16308q-.00732-.39111-.043-.81739c-.06933-.82519-.17383-2.042-.31055-3.60839-.27246-3.1211-.67187-7.63672-1.168-13.22071-.99121-11.16211-2.37012-26.58984-3.89454-43.65918-4.4121-49.38086-9.90332-110.83691-11.0498-125.1709C108,74.60156,108,45.10449,108,34c0-6.92188,6.37695-24,16-24,11.59473,0,15.95312.001,20.126,20.626.6084,4.52929,7.10254,46.77246,14.60156,95.55859,9.22558,60.00977,19.68066,128.02734,21.82324,143.02246a5.01029,5.01029,0,1,0,9.917-1.43457l-.09668-1.09473c-.084-.93261-.21191-2.30859-.37988-4.082-.335-3.53125-.8291-8.64453-1.44922-14.97656-.86523-8.831-2.66406-27.02637-4.98633-49.66894-3.60546-35.16016-8.76855-83.92579-12.91992-116.88282.04688-13.8584,1.666-22.79394,4.81543-26.56054C177.4541,52.11133,180.10254,52,185,52c5.96289,0,12.6875,2.78613,23.48828,36.08594,12.24219,37.74707,46.84375,178.6416,50.67285,199.70312,2.21875,12.19922,4.26563,34.19922,6.07227,53.6084.33984,3.65332.67187,7.22168.99609,10.62988A98.50431,98.50431,0,0,0,242,337c-25.999-12-58.71387-12-85-12-29.207,0-37,11.94336-37,19,0,4.28613,4.98242,14.33008,18.51367,24.46191-19.27441,13.501-54.207,46.05079-58.834,52.99121A4.99989,4.99989,0,1,0,88,427c4.26953-6.4043,43.13184-42.27637,59.55566-52.57129.60352.35254,1.21582.70215,1.84278,1.05176-18.4043,24.55176-51.43555,88.74414-54.25684,100.33691a5.00026,5.00026,0,0,0,9.7168,2.36524c2.52734-10.38672,36.84375-76.64649,53.63769-98.14551l.08692.03906c-6.53613,15.38867-15.36035,48.374-15.53321,54.333a5.00014,5.00014,0,1,0,9.9961.28906c.12305-4.2666,8.78125-36.99316,14.78027-50.874q6.06446,2.21631,13.06543,4.14648c.07227.01953.14551.03809.21973.05469a57.87419,57.87419,0,0,0,19.30957,1.0957c7.24609,9.69825,29.36035,38.1084,35.51562,40.85157a5.00008,5.00008,0,0,0,4.23438-9.05762c-3.51563-2.29395-19.61133-21.72266-29.0166-34.08789A60.51561,60.51561,0,0,0,224,381a4.99959,4.99959,0,0,0-5.14453-8.57422,49.27194,49.27194,0,0,1-15.63379,6.127,4.98973,4.98973,0,0,0-3.02051.50586A47.65092,47.65092,0,0,1,183.416,378.294a149.2763,149.2763,0,0,1-16.00293-5.334c-.13379-.06152-.26954-.11621-.40625-.16406q-3.65332-1.478-6.87305-3.02442a4.95614,4.95614,0,0,0-1.60742-.78418c-2.80176-1.39648-5.35352-2.8164-7.67383-4.23828a5.02551,5.02551,0,0,0-1.168-.72754c-14.28516-9.0498-19.29395-17.92675-19.68164-20.11132C130.1709,341.52441,136.90527,335,157,335c25.30762,0,56.80371,0,80.85254,11.09961l.18652.082C282.8457,365.51074,303,419.69727,303,452,303,477.50684,289.59082,515.98047,263.14648,566.35156Z"/></g></g><text x="0" y="751" fill="#000000" font-size="5px" font-weight="bold" font-family="'Helvetica Neue', Helvetica, Arial-Unicode, Arial, Sans-serif">Created by Romain J</text><text x="0" y="756" fill="#000000" font-size="5px" font-weight="bold" font-family="'Helvetica Neue', Helvetica, Arial-Unicode, Arial, Sans-serif">from the Noun Project</text></svg>