<svg xmlns="http://www.w3.org/2000/svg" xmlns:xlink="http://www.w3.org/1999/xlink" version="1.1" x="0px" y="0px" viewBox="0 0 100 125" enable-background="new 0 0 100 100" xml:space="preserve"><path fill="#000000" d="M67.494,50.258c-3.845,2.366-6.528,7.672-8.895,12.353c-1.263,2.498-2.456,4.857-3.579,6.205  c-1.65,1.98-5.487,4.307-9.198,6.558c-3.409,2.067-6.628,4.02-8.436,5.828c-0.569,0.569-1.178,1.222-1.822,1.914  c-2.319,2.489-5.49,5.901-7.364,5.584c-0.207-0.035-0.839-0.14-1.453-1.522c-2.199-4.948,2.546-10.355,5.381-13.585l0.58-0.664  c0.237-0.274,0.5-0.565,0.776-0.872c2.946-3.269,8.429-9.354,1.108-16.009c-2.399-2.182-4.625-3.171-6.804-3.02  c-3.335,0.228-5.751,3.119-7.882,5.669c-0.452,0.541-0.898,1.075-1.344,1.573c-3.323,3.714-3.402,13.16-3.466,20.75  c-0.012,1.489-0.024,2.896-0.061,4.123c-0.055,1.834-0.558,4.048-2.637,4.175c-1.834,0.116-3.781-1.371-3.929-2.328  c-0.469-3.048-0.576-23.188,1.027-26.994c1.61-3.823,13.094-15.637,15.257-17.559c1.111-0.988,11.184-5.053,18.54-8.021  c4.753-1.918,9.241-3.73,11.365-4.71c5.627-2.597,38.793-19.069,39.128-19.235L92.912,8.71  c-0.334,0.166-33.475,16.626-39.077,19.211c-2.08,0.96-6.547,2.763-11.277,4.671c-10.718,4.326-17.839,7.246-19.11,8.375  C21.425,42.766,9.517,54.884,7.685,59.234c-1.89,4.49-1.568,25.389-1.158,28.055c0.316,2.058,3.128,4.001,5.691,4.001  c0.101,0,0.201-0.003,0.301-0.009c0.945-0.058,2.811-0.483,3.813-2.745c0.609,0.552,1.358,0.832,2.084,0.853  c0.032,0.001,0.063,0.001,0.095,0.001c1.735,0,3.638-1.392,4.086-4.464c0.478,0.2,1.002,0.302,1.51,0.302  c0.044,0,0.086-0.006,0.13-0.008c0.08,0.911,0.304,1.832,0.715,2.755c0.692,1.558,1.676,2.453,2.925,2.663  c2.907,0.489,6.213-3.057,9.127-6.183c0.633-0.679,1.23-1.32,1.774-1.864c1.641-1.64,4.907-3.621,8.066-5.537  c3.849-2.334,7.828-4.748,9.689-6.98c1.267-1.52,2.508-3.976,3.823-6.576c2.249-4.449,4.798-9.49,8.17-11.565  c5.539-3.408,24.985-10.986,25.181-11.062l-0.712-1.832C92.187,39.352,73.184,46.757,67.494,50.258z M35.787,60.752  c1.58,3.523-0.758,6.654-3.763,9.989c-0.286,0.317-0.556,0.618-0.801,0.9l-0.572,0.654c-0.65,0.74-1.39,1.585-2.132,2.511  c0.191-2.494,0.51-5.107,0.949-6.033C30.118,67.401,33.684,63.17,35.787,60.752z M18.473,87.423  c-0.732-0.022-1.47-0.725-1.471-2.245c0.037-1.243,0.049-2.651,0.061-4.142c0.058-6.877,0.136-16.294,2.964-19.456  c0.46-0.514,0.921-1.065,1.387-1.623c1.971-2.358,4.009-4.797,6.508-4.968c0.738-0.049,1.505,0.105,2.306,0.447  c-1.899,2.097-6.357,7.08-7.555,8.945c-1.19,1.851-1.481,7.425-1.762,15.099c-0.062,1.684-0.12,3.275-0.195,4.544  C20.583,86.295,19.496,87.442,18.473,87.423z M23.159,83.015c-0.365-0.217-0.401-0.455-0.392-0.639l-0.001,0  c0.038-0.883,0.074-1.833,0.11-2.825c0.184-5.004,0.461-12.567,1.451-14.108c1.17-1.82,5.984-7.172,7.642-9.001  c0.423,0.306,0.855,0.654,1.301,1.059c0.563,0.512,1.034,1.014,1.428,1.507c-1.615,1.842-6.128,7.066-7.008,8.923  c-0.965,2.038-1.256,8.336-1.313,9.882c-1.031,1.684-1.843,3.523-2.094,5.435C23.936,83.282,23.494,83.214,23.159,83.015z"/><text x="0" y="115" fill="#000000" font-size="5px" font-weight="bold" font-family="'Helvetica Neue', Helvetica, Arial-Unicode, Arial, Sans-serif">Created by Jamie Yeo</text><text x="0" y="120" fill="#000000" font-size="5px" font-weight="bold" font-family="'Helvetica Neue', Helvetica, Arial-Unicode, Arial, Sans-serif">from the Noun Project</text></svg>