<svg xmlns="http://www.w3.org/2000/svg" viewBox="0 0 128 160" x="0px" y="0px"><title>legging, pants, wearing, clothes, outfit, sport</title><path d="M80.609,127.119h-6.83a2.5,2.5,0,0,1-2.5-2.355c-.35-6.171-2.208-37.456-4.332-47.19-.545-2.5-1.409-13.3-2.324-24.738-.209-2.607-.42-5.248-.627-7.778-.207,2.53-.418,5.171-.627,7.778-.915,11.438-1.779,22.241-2.324,24.738-2.124,9.734-3.982,41.019-4.332,47.192a2.5,2.5,0,0,1-2.5,2.353h-6.83a2.5,2.5,0,0,1-2.46-2.051C43.965,119.762,39.3,92.459,42.291,76a14.917,14.917,0,0,0-.1-5.643c-2.309-11.382-5.8-28.585-5.379-37.918.389-8.7,3.86-14.587,6.4-18.883l.451-.767A28.63,28.63,0,0,0,46.58,3.915,3.588,3.588,0,0,1,50.126.881H77.874A3.588,3.588,0,0,1,81.42,3.915a28.63,28.63,0,0,0,2.926,8.875l.451.767c2.535,4.3,6.006,10.179,6.395,18.883.418,9.333-3.07,26.536-5.379,37.919a14.911,14.911,0,0,0-.1,5.642c2.994,16.458-1.674,43.761-2.64,49.066A2.5,2.5,0,0,1,80.609,127.119Zm-6.357-3h5.94c1.091-6.082,5.4-32.015,2.566-47.581a17.866,17.866,0,0,1,.116-6.775C85.153,58.523,88.6,41.539,88.2,32.574c-.357-7.957-3.476-13.244-5.982-17.493l-.456-.775a31.82,31.82,0,0,1-3.3-9.91.6.6,0,0,0-.585-.515H50.126a.6.6,0,0,0-.585.516,31.823,31.823,0,0,1-3.3,9.909l-.456.775C43.28,19.33,40.161,24.617,39.8,32.575c-.4,8.964,3.043,25.948,5.322,37.187a17.871,17.871,0,0,1,.116,6.776c-2.831,15.566,1.475,41.5,2.566,47.581h5.94c.414-7.2,2.248-37.464,4.369-47.185.5-2.3,1.4-13.5,2.266-24.337.568-7.1,1.155-14.447,1.628-19.176a2,2,0,0,1,3.978,0c.473,4.728,1.06,12.073,1.628,19.175.867,10.835,1.764,22.038,2.266,24.337C72,86.656,73.838,116.92,74.252,124.119Z"/><path d="M76.454,8.462H51.546a1.5,1.5,0,0,1,0-3H76.454a1.5,1.5,0,0,1,0,3Z"/><text x="0" y="143" fill="#000000" font-size="5px" font-weight="bold" font-family="'Helvetica Neue', Helvetica, Arial-Unicode, Arial, Sans-serif">Created by Victoruler</text><text x="0" y="148" fill="#000000" font-size="5px" font-weight="bold" font-family="'Helvetica Neue', Helvetica, Arial-Unicode, Arial, Sans-serif">from the Noun Project</text></svg>