<svg xmlns="http://www.w3.org/2000/svg" xmlns:xlink="http://www.w3.org/1999/xlink" version="1.1" x="0px" y="0px" viewBox="0 0 100 125" style="enable-background:new 0 0 100 100;" xml:space="preserve"><g><path d="M50,14.5c-19.6,0-35.5,15.9-35.5,35.5S30.4,85.5,50,85.5S85.5,69.6,85.5,50S69.6,14.5,50,14.5z M29,72.1   c5.8-7.5,13.2-11.6,21-11.6s15.2,4.1,21,11.6c-5.5,5.2-12.9,8.4-21,8.4S34.5,77.3,29,72.1z M50,54.5c-5.8,0-10.4-4.7-10.4-10.4   S44.2,33.7,50,33.7s10.4,4.7,10.4,10.4S55.8,54.5,50,54.5z M74.4,68.3c-4.5-5.6-9.9-9.5-15.7-11.4c4.1-2.8,6.8-7.5,6.8-12.8   c0-8.5-6.9-15.4-15.4-15.4s-15.4,6.9-15.4,15.4c0,5.3,2.7,10,6.8,12.8c-5.8,1.9-11.2,5.8-15.7,11.4c-3.9-5.1-6.1-11.5-6.1-18.3   c0-16.8,13.7-30.5,30.5-30.5S80.5,33.2,80.5,50C80.5,56.9,78.2,63.2,74.4,68.3z"/></g><text x="0" y="115" fill="#000000" font-size="5px" font-weight="bold" font-family="'Helvetica Neue', Helvetica, Arial-Unicode, Arial, Sans-serif">Created by Ananth</text><text x="0" y="120" fill="#000000" font-size="5px" font-weight="bold" font-family="'Helvetica Neue', Helvetica, Arial-Unicode, Arial, Sans-serif">from the Noun Project</text></svg>