<svg xmlns="http://www.w3.org/2000/svg" xmlns:xlink="http://www.w3.org/1999/xlink" xml:space="preserve" version="1.1" style="shape-rendering:geometricPrecision;text-rendering:geometricPrecision;image-rendering:optimizeQuality;" viewBox="0 0 50000 62500" x="0px" y="0px" fill-rule="evenodd" clip-rule="evenodd"><defs><style type="text/css">
   
    .fil0 {fill:black;fill-rule:nonzero}
   
  </style></defs><g><path class="fil0" d="M37037.94 48173.57c164.21,283.54 -267.44,533.52 -431.64,250 -2015.01,-3475.96 -4045.27,-3993.38 -7039.1,-4756.34 -5953.15,-1517.11 -16907.38,-3235.03 -20075.98,-9179.7 -841.76,-1579.24 -1159.95,-3373.25 -840.79,-5263.25 876.63,-5191.28 -421.69,-8074.04 -2331.78,-12315.17 -363.22,-806.53 -680.44,-1584.47 -1000.97,-2410.55 -727.69,-1875.39 -1923.83,-4958.06 -3283.86,-7831.34 -1381.44,-2918.51 2543.37,-4936.92 4709.3,-2511.54 897.89,1005.45 1518.38,2437.04 2068.94,3707.33 481.55,1111.1 814.08,1658.4 1620.24,2598.98 575.09,671.01 1005,1821 1512.34,2979.65 193.74,-465.91 556.25,-1383.75 745.58,-1849.55 1077.2,-2650.13 2102.26,-5171.93 4118.43,-8032.48 1419.87,-2141.52 4764.44,-3487.34 5266.25,190.98 2264.18,-1795.79 4613.15,-315.24 4363.93,2570.74 -110.51,1279.73 -374.07,2900.53 -128.12,4132.26 801.13,4011.97 4359.01,5699.99 6754.74,6836.63 765.62,363.24 1356.85,656.28 2060.6,1133.56 1955.94,1326.1 4132.3,2801.65 6123.9,5664.24 886.81,1274.64 1700.85,2697.08 2499.47,4092.57 1419.04,2479.63 3087.29,4800.74 4469.46,7248.63 160.57,285.19 -273.05,529.3 -433.6,244.14 -1193.05,-2112.99 -2644.19,-4088.41 -3870.35,-6202.53 88.22,583.53 102.02,1192.5 -4.55,1775.36 -59.06,322.39 -549.31,232.62 -490.24,-89.84 113.11,-618.61 73.34,-1280.28 -50.27,-1903.31 -149.62,-754.14 -420.33,-1444.69 -692.09,-1934.19 -590.49,-1017.7 -1196.48,-2023.62 -1837.99,-2945.67 -1593.23,-2290 -3316.23,-3675.02 -4943.04,-4816.86 536.74,1363.36 0.97,2917.33 -1270.16,3650.59 -451.97,260.73 -960.61,481.35 -1432.44,643.95 -13.44,4.63 -26.85,9.21 -40.25,13.75 3412.31,909.36 2973.09,5011.2 -1018.69,5271.45 -1310.13,85.44 -2548.61,87.28 -3811.07,-332.84 -892.9,314.51 -2094.24,513.72 -3049.7,432.36 897.36,1284.2 -497.82,2198.3 -287.2,3527.47 51.38,323.71 -440.81,401.81 -492.18,78.12 -215.56,-1360.32 1016.86,-2339.22 353.29,-3333.29 -662.73,1653.61 -1670.23,2963.69 -3079.88,4050.91 -259.15,200.13 -563.84,-194.4 -304.68,-394.54 1416.82,-1092.77 2394.66,-2412.97 3017.27,-4092.49 -149,-56.08 -280.58,-126.38 -389.68,-212.68 -256.58,-202.7 52.01,-593.33 308.6,-390.62 791.67,626.23 3557.21,114.08 4312.33,-388.32 260.74,-172.59 536.47,203.66 296.12,400.74 1025.84,245.11 2050.22,225.29 3095.52,157.14 3486.16,-227.3 3721.41,-3512.07 960.38,-4281.03 -607.36,-169.15 -1185.56,-151.52 -1804.11,-196.72 -2772.7,-202.63 -7224.08,-1238.07 -9655.89,-970.29 -1643.75,181.01 -2628.32,1768.78 -3758.15,3590.8 -970.28,1564.75 -2043.21,3294.99 -3741.86,4525.92 -265.92,192.68 -558.85,-211.65 -292.96,-404.3 1621.57,-1175.08 2666.25,-2859.78 3611,-4383.34 1198.73,-1933.13 2243.32,-3617.72 4127.29,-3825.18 2487.8,-273.93 6900.88,756.67 9710.67,966.69 470.17,35.12 704.68,16.83 1179.64,-103.85 182.99,-46.49 383.39,-106.61 592.09,-178.52 449.7,-154.97 928.83,-361.99 1346.5,-602.93 1432.71,-826.47 1664.98,-2880.13 414.4,-3936.88 -515.08,-435.26 -1273.78,-660.48 -2256.86,-482.23 -2840.08,514.94 -3564.77,1501.71 -6863.86,1571.62 -1294.54,27.41 -2574.57,-123.68 -3839.91,-390.68 -1422.3,-300.11 -2913.19,-705.45 -4348.3,-851.39 -1629.05,-165.61 -2033.51,238.24 -2756.66,1628.24 -1238.51,2380.58 -2822.34,6357.76 -3459.47,8921.13 -78.33,318.54 -562.73,199.46 -484.38,-119.14 645.63,-2597.55 2245.85,-6620.84 3500.49,-9032.45 669.96,-1287.78 1186.44,-1971.05 2724.9,-1929.27 467.48,-1781.58 920.78,-3742.43 1081.59,-5577.56 155.58,-1775.36 1057.97,-3099.73 1922.19,-4368.1 877.05,-1287.21 1712.82,-2513.84 1601.32,-4063.75 -285.01,-3338.72 -3052.86,-2232.42 -4397.15,-298.1 -911.45,1293.17 -1618.26,2519.45 -2219.67,3721.95 44.29,223.75 332.46,464.35 694.41,501.16 195.76,19.27 166.47,316.93 -29.3,297.66 -321.23,-32.66 -637.15,-205.44 -828.54,-467.5 -631.33,1298.21 -1149.59,2573.16 -1680.63,3879.61 -295.56,727.11 -612.78,1453.1 -899.93,2181.35 96.72,264.47 322.95,405.1 585.09,477.44 189.59,52.4 109.92,340.68 -79.68,288.28 -249.17,-68.77 -480.11,-193.5 -640.9,-399.42 -615.59,1776.19 -760.98,3852.74 -910.38,5988.57 -122.41,1749.84 -247.59,3538.93 -635.56,5258.81 -71.93,319.83 -558.25,210.48 -486.32,-109.38 378.71,-1678.81 502.64,-3450.15 623.84,-5182.63 183.14,-2332.61 341.28,-4323.04 961.62,-6189.11 -512.97,-1370.15 -995.58,-2581.65 -1617.5,-3307.29 -841.76,-982.13 -1196.51,-1567.96 -1698.38,-2725.94 -535.3,-1235.08 -1138.59,-2626.99 -1983,-3572.55 -1779.35,-1992.51 -5024.39,-436.29 -3887.02,1966.6 707.46,1494.62 1371.23,3047.07 1948.38,4458.34 100,244.53 169.8,321.87 447.9,334.21 196.52,8.48 183.64,307.3 -12.9,298.82 -65.11,-2.89 -127.87,-10.65 -187.71,-24.15 431.03,1068.54 805.18,2032.78 1101.85,2797.34 160.41,413.39 297.99,767.99 409.17,1047.82 57.37,144.4 104.15,287.77 227.93,391.61 139.65,117.19 325.18,131.72 529.64,121.66 196.54,-9.24 210.58,289.58 14.06,298.82 -166.84,8.21 -313.82,-2.46 -443.58,-38.85 70.71,157.13 162.7,361.39 253.99,564.09 1947.15,4323.41 3270.66,7262.1 2368.88,12602.29 -300.33,1778.46 -2.03,3464.51 788.07,4946.83 3070.2,5760.01 14136.58,7509.22 19917.57,8957.66 1687.24,422.77 4088.96,1024.55 5841.41,717.86 323.71,-56.52 409.64,435.66 85.94,492.18 -712.7,124.73 -1514.84,110.49 -2330.58,21.19 1301.63,687.36 2446.04,1753.12 3592.92,3731.53zm5669.7 -9346.08c-110.07,163.18 -358.52,-4.38 -248.44,-167.58 579.2,-857.84 990.74,-1832.78 1241.3,-2835.5 47.77,-191.12 338.4,-118.49 290.62,72.66 -258.4,1034.1 -686.19,2045.78 -1283.48,2930.42zm-38325.61 -29811.99c-163.95,107.76 -328.01,-141.84 -164.06,-249.6 470.78,-309.43 -716.86,-2373.58 -923.2,-2744.89 -95.57,-171.9 165.78,-317.17 261.32,-145.32 312.49,562.34 1568.18,2651.94 825.94,3139.81zm17030.88 7368.1c196.53,-12.34 215.29,286.48 18.76,298.82 -421.59,27.53 -846.11,-55.45 -1223.17,-246.48 137.5,203.56 281.77,403.63 432.04,597.84 1609.17,2079.63 2682.9,2445.48 5021.93,2395.96 3169.55,-67.16 3998.77,-1058.53 6785.72,-1563.82 183.93,-33.35 361.44,-54.21 532.5,-63.7 -3323.57,-1577.49 -6372.49,-3306.07 -7160.22,-7250.97 -258.26,-1293.38 4.6,-2933.22 120.32,-4272.88 230.95,-2674.5 -1931.15,-3702.21 -3817.66,-1907.75 22.12,1593.88 -818.4,2827.74 -1698.35,4119.2 -814.56,1195.5 -1664.53,2442.95 -1828.83,4051.73 44.14,705.48 379.48,1703 912.46,2721.41 412.95,789.16 994.67,1180.06 1904.5,1120.64zm-279.57 7588.51c-27.73,-195.02 268.76,-237.14 296.48,-42.18 49.82,345.22 271.85,764.25 548.2,980.39 154.71,120.84 -29.26,356.39 -183.98,235.54 -338.55,-264.77 -599.61,-750.48 -660.7,-1173.75zm-5083.61 -4581.65c-20.8,-195.79 276.87,-227.38 297.66,-31.64 34.75,326.26 263.04,669.09 514.96,871.55 153.18,123.15 -34.32,356.36 -187.5,233.2 -313.46,-251.92 -582,-668.26 -625.12,-1073.11zm12905.01 5282.13c23.86,-195.73 321.53,-159.48 297.66,36.32 -52.46,424.22 45.16,792.72 249.57,1163.39 94.8,172.64 -167.7,316.78 -262.5,144.14 -233.31,-423.11 -344.54,-860.19 -284.73,-1343.85zm2227.21 234.96c13.1,-196.53 311.92,-176.61 298.82,19.92 -94.27,1360.01 1431.46,1316.78 2387.54,1256.65 196.53,-12.34 215.29,286.48 18.76,298.82 -1169.67,73.57 -2816.67,33.72 -2705.12,-1575.39zm-3743.71 -4217.22c0,-196.53 298.82,-196.53 298.82,0 -1.55,475.74 174.56,868.65 387.98,1282.14 90.17,174.97 -175.87,312.04 -266.02,137.1 -237.33,-459.81 -422.48,-890.56 -420.78,-1419.24zm2926.33 -556.61c-30.82,-194.25 264.5,-241.09 295.32,-46.88 79.37,500.93 280.98,1012 779.48,1226.11 645.19,277.1 1545.87,-30.95 2148.81,-302.57 179.58,-80.92 302.6,192.13 123.04,273.04 -691.09,311.33 -1653.86,621.18 -2390.21,304.93 -601.91,-258.52 -859.9,-845.4 -956.44,-1454.63zm-13615.35 -14570.07c-148.57,-128.56 47.15,-354.72 195.7,-226.18 284.08,245.32 603.42,340.37 966.94,192.75 611.54,-248.34 1119.62,-1063.62 1400.54,-1630.88 87.07,-176.48 355.45,-44.09 268.36,132.42 -318.43,642.98 -865.01,1495.44 -1556.4,1776.2 -471.21,191.36 -903.87,76.28 -1275.14,-244.31zm23995 33572.96c-136.4,141.8 -352.04,-65.59 -215.62,-207.42 1282.08,-1329.8 2043.09,-3204.88 2254.52,-5025.23 22.34,-195.75 320,-161.8 297.66,33.98 -218.9,1884.63 -1009.59,3822.3 -2336.56,5198.67zm-18768.12 -20078.94c-626.98,-449.86 -1213.09,-1051.04 -1730.1,-1719.21 -816.63,-1055.38 -1465.64,-2286.2 -1829.93,-3347.62 -221.19,1408.91 -541.02,2817.96 -900.36,4197.07 1487.37,147.61 2957.59,552.7 4418.17,860.91l42.22 8.85z"/></g><text x="0" y="50015" fill="#000000" font-size="5px" font-weight="bold" font-family="'Helvetica Neue', Helvetica, Arial-Unicode, Arial, Sans-serif">Created by Oleksandr Panasovskyi</text><text x="0" y="50020" fill="#000000" font-size="5px" font-weight="bold" font-family="'Helvetica Neue', Helvetica, Arial-Unicode, Arial, Sans-serif">from the Noun Project</text></svg>